<svg id="SvgjsSvg1006" width="824" height="646.5" xmlns="http://www.w3.org/2000/svg" version="1.1" xmlns:xlink="http://www.w3.org/1999/xlink" xmlns:svgjs="http://svgjs.com/svgjs"><defs id="SvgjsDefs1007"></defs><g id="SvgjsG1008" transform="translate(173,489)"><path id="SvgjsPath1009" d="M 0 0L 561 0L 561 72L 0 72Z" stroke="rgba(255,230,204,1)" stroke-width="2" fill-opacity="1" fill="#ccffe6"></path><g id="SvgjsG1010"><text id="SvgjsText1011" font-family="Impact" text-anchor="middle" font-size="13px" width="541px" fill="#323232" font-weight="400" align="middle" anchor="middle" family="Impact" size="13px" weight="400" font-style="" opacity="1" y="26.05" transform="rotate(0)"><tspan id="SvgjsTspan1012" dy="16" x="280.5"><tspan id="SvgjsTspan1013" style="text-decoration:;">Sirius SDK</tspan></tspan></text></g></g><g id="SvgjsG1014" transform="translate(173,584)"><path id="SvgjsPath1015" d="M 0 4Q 0 0 4 0L 142 0Q 146 0 146 4L 146 31Q 146 35 142 35L 4 35Q 0 35 0 31Z" stroke="rgba(50,50,50,1)" stroke-width="2" fill-opacity="1" fill="#e6ffcc"></path><g id="SvgjsG1016"><text id="SvgjsText1017" font-family="Impact" text-anchor="middle" font-size="13px" width="126px" fill="#323232" font-weight="400" align="middle" anchor="middle" family="Impact" size="13px" weight="400" font-style="" opacity="1" y="7.55" transform="rotate(0)"><tspan id="SvgjsTspan1018" dy="16" x="73"><tspan id="SvgjsTspan1019" style="text-decoration:;">SPARK</tspan></tspan></text></g></g><g id="SvgjsG1020" transform="translate(333,584)"><path id="SvgjsPath1021" d="M 0 4Q 0 0 4 0L 142 0Q 146 0 146 4L 146 31Q 146 35 142 35L 4 35Q 0 35 0 31Z" stroke="rgba(50,50,50,1)" stroke-width="2" fill-opacity="1" fill="#e6ffcc"></path><g id="SvgjsG1022"><text id="SvgjsText1023" font-family="Impact" text-anchor="middle" font-size="13px" width="126px" fill="#323232" font-weight="400" align="middle" anchor="middle" family="Impact" size="13px" weight="400" font-style="" opacity="1" y="7.55" transform="rotate(0)"><tspan id="SvgjsTspan1024" dy="16" x="73"><tspan id="SvgjsTspan1025" style="text-decoration:;">Flink</tspan></tspan></text></g></g><g id="SvgjsG1026" transform="translate(492.5,584)"><path id="SvgjsPath1027" d="M 0 4Q 0 0 4 0L 142 0Q 146 0 146 4L 146 31Q 146 35 142 35L 4 35Q 0 35 0 31Z" stroke="rgba(50,50,50,1)" stroke-width="2" fill-opacity="1" fill="#e6ffcc"></path><g id="SvgjsG1028"><text id="SvgjsText1029" font-family="Impact" text-anchor="middle" font-size="13px" width="126px" fill="#323232" font-weight="400" align="middle" anchor="middle" family="Impact" size="13px" weight="400" font-style="" opacity="1" y="7.55" transform="rotate(0)"><tspan id="SvgjsTspan1030" dy="16" x="73"><tspan id="SvgjsTspan1031" style="text-decoration:;">RayaG</tspan></tspan></text></g></g><g id="SvgjsG1032" transform="translate(611,576)"><path id="SvgjsPath1033" d="M 0 0L 160 0L 160 40L 0 40Z" stroke="none" fill="none"></path><g id="SvgjsG1034"><text id="SvgjsText1035" font-family="Impact" text-anchor="middle" font-size="19px" width="160px" fill="#323232" font-weight="400" align="middle" anchor="middle" family="Impact" size="19px" weight="400" font-style="" opacity="1" y="5.15" transform="rotate(0)"><tspan id="SvgjsTspan1036" dy="23" x="80"><tspan id="SvgjsTspan1037" style="text-decoration:;">..............</tspan></tspan></text></g></g><g id="SvgjsG1038" transform="translate(201.5,25)"><path id="SvgjsPath1039" d="M 0 0L 467 0L 467 35L 0 35Z" stroke="none" fill="none"></path><g id="SvgjsG1040"><text id="SvgjsText1041" font-family="Impact" text-anchor="middle" font-size="25px" width="467px" fill="#ff6666" font-weight="700" align="middle" anchor="middle" family="Impact" size="25px" weight="700" font-style="italic" opacity="1" y="-3.75" transform="rotate(0)"><tspan id="SvgjsTspan1042" dy="31" x="233.5"><tspan id="SvgjsTspan1043" style="text-decoration:;">Sirius:  易用的分布式计算Uniform SDK</tspan></tspan></text></g></g><g id="SvgjsG1044" transform="translate(173,383)"><path id="SvgjsPath1045" d="M 0 0L 275 0L 275 95L 0 95Z" stroke="rgba(50,50,50,1)" stroke-width="2" fill-opacity="1" fill="#ffcccc"></path><g id="SvgjsG1046"><text id="SvgjsText1047" font-family="Impact" text-anchor="middle" font-size="13px" width="255px" fill="#323232" font-weight="400" align="middle" anchor="middle" family="Impact" size="13px" weight="400" font-style="" opacity="1" y="37.55" transform="rotate(0)"></text></g></g><g id="SvgjsG1048"><path id="SvgjsPath1049" d="M77 572L434 572L434 572L791 572" stroke-dasharray="3,3" stroke="#323232" stroke-width="2" fill="none"></path></g><g id="SvgjsG1050" transform="translate(35,581.5)"><path id="SvgjsPath1051" d="M 0 0L 160 0L 160 40L 0 40Z" stroke="none" fill="none"></path><g id="SvgjsG1052"><text id="SvgjsText1053" font-family="Impact" text-anchor="middle" font-size="13px" width="160px" fill="#323232" font-weight="700" align="middle" anchor="middle" family="Impact" size="13px" weight="700" font-style="" opacity="1" y="10.05" transform="rotate(0)"><tspan id="SvgjsTspan1054" dy="16" x="80"><tspan id="SvgjsTspan1055" style="text-decoration:;">Runtime</tspan></tspan></text></g></g><g id="SvgjsG1056"><path id="SvgjsPath1057" d="M81 347L437 347L437 347L793 347" stroke-dasharray="3,3" stroke="#323232" stroke-width="2" fill="none"></path></g><g id="SvgjsG1058" transform="translate(457,383)"><path id="SvgjsPath1059" d="M 0 0L 277 0L 277 95L 0 95Z" stroke="rgba(50,50,50,1)" stroke-width="2" fill-opacity="1" fill="#ffe6cc"></path><g id="SvgjsG1060"><text id="SvgjsText1061" font-family="Impact" text-anchor="middle" font-size="13px" width="257px" fill="#323232" font-weight="400" align="middle" anchor="middle" family="Impact" size="13px" weight="400" font-style="" opacity="1" y="37.55" transform="rotate(0)"></text></g></g><g id="SvgjsG1062" transform="translate(25,452)"><path id="SvgjsPath1063" d="M 0 0L 160 0L 160 40L 0 40Z" stroke="none" fill="none"></path><g id="SvgjsG1064"><text id="SvgjsText1065" font-family="Impact" text-anchor="middle" font-size="13px" width="160px" fill="#323232" font-weight="700" align="middle" anchor="middle" family="Impact" size="13px" weight="700" font-style="" opacity="1" y="10.05" transform="rotate(0)"><tspan id="SvgjsTspan1066" dy="16" x="80"><tspan id="SvgjsTspan1067" style="text-decoration:;">API</tspan></tspan></text></g></g><g id="SvgjsG1068" transform="translate(199,392)"><path id="SvgjsPath1069" d="M 0 0L 109 0L 109 34L 0 34Z" stroke="rgba(50,50,50,1)" stroke-width="2" fill-opacity="1" fill="#ffffff"></path><g id="SvgjsG1070"><text id="SvgjsText1071" font-family="Impact" text-anchor="middle" font-size="13px" width="89px" fill="#323232" font-weight="700" align="middle" anchor="middle" family="Impact" size="13px" weight="700" font-style="" opacity="1" y="7.05" transform="rotate(0)"><tspan id="SvgjsTspan1072" dy="16" x="54.5"><tspan id="SvgjsTspan1073" style="text-decoration:;">aggMsg</tspan></tspan></text></g></g><g id="SvgjsG1074" transform="translate(325,392)"><path id="SvgjsPath1075" d="M 0 0L 109 0L 109 34L 0 34Z" stroke="rgba(50,50,50,1)" stroke-width="2" fill-opacity="1" fill="#ffffff"></path><g id="SvgjsG1076"><text id="SvgjsText1077" font-family="Impact" text-anchor="middle" font-size="13px" width="89px" fill="#323232" font-weight="700" align="middle" anchor="middle" family="Impact" size="13px" weight="700" font-style="" opacity="1" y="7.05" transform="rotate(0)"><tspan id="SvgjsTspan1078" dy="16" x="54.5"><tspan id="SvgjsTspan1079" style="text-decoration:;">traversal</tspan></tspan></text></g></g><g id="SvgjsG1080" transform="translate(199,437)"><path id="SvgjsPath1081" d="M 0 0L 109 0L 109 34L 0 34Z" stroke="rgba(50,50,50,1)" stroke-width="2" fill-opacity="1" fill="#ffffff"></path><g id="SvgjsG1082"><text id="SvgjsText1083" font-family="Impact" text-anchor="middle" font-size="13px" width="89px" fill="#323232" font-weight="700" align="middle" anchor="middle" family="Impact" size="13px" weight="700" font-style="" opacity="1" y="7.05" transform="rotate(0)"><tspan id="SvgjsTspan1084" dy="16" x="54.5"><tspan id="SvgjsTspan1085" style="text-decoration:;">pregel</tspan></tspan></text></g></g><g id="SvgjsG1086" transform="translate(325,437)"><path id="SvgjsPath1087" d="M 0 0L 109 0L 109 34L 0 34Z" stroke="rgba(50,50,50,1)" stroke-width="2" fill-opacity="1" fill="#ffffff"></path><g id="SvgjsG1088"><text id="SvgjsText1089" font-family="Impact" text-anchor="middle" font-size="16px" width="89px" fill="#323232" font-weight="700" align="middle" anchor="middle" family="Impact" size="16px" weight="700" font-style="" opacity="1" y="4.6" transform="rotate(0)"><tspan id="SvgjsTspan1090" dy="20" x="54.5"><tspan id="SvgjsTspan1091" style="text-decoration:;">...............</tspan></tspan></text></g></g><g id="SvgjsG1092" transform="translate(478,392)"><path id="SvgjsPath1093" d="M 0 0L 109 0L 109 34L 0 34Z" stroke="rgba(50,50,50,1)" stroke-width="2" fill-opacity="1" fill="#ffffff"></path><g id="SvgjsG1094"><text id="SvgjsText1095" font-family="Impact" text-anchor="middle" font-size="13px" width="89px" fill="#323232" font-weight="700" align="middle" anchor="middle" family="Impact" size="13px" weight="700" font-style="" opacity="1" y="7.05" transform="rotate(0)"><tspan id="SvgjsTspan1096" dy="16" x="54.5"><tspan id="SvgjsTspan1097" style="text-decoration:;">cogroup</tspan></tspan></text></g></g><g id="SvgjsG1098" transform="translate(604,392)"><path id="SvgjsPath1099" d="M 0 0L 109 0L 109 34L 0 34Z" stroke="rgba(50,50,50,1)" stroke-width="2" fill-opacity="1" fill="#ffffff"></path><g id="SvgjsG1100"><text id="SvgjsText1101" font-family="Impact" text-anchor="middle" font-size="13px" width="89px" fill="#323232" font-weight="700" align="middle" anchor="middle" family="Impact" size="13px" weight="700" font-style="" opacity="1" y="7.05" transform="rotate(0)"><tspan id="SvgjsTspan1102" dy="16" x="54.5"><tspan id="SvgjsTspan1103" style="text-decoration:;">window</tspan></tspan></text></g></g><g id="SvgjsG1104" transform="translate(478,437)"><path id="SvgjsPath1105" d="M 0 0L 109 0L 109 34L 0 34Z" stroke="rgba(50,50,50,1)" stroke-width="2" fill-opacity="1" fill="#ffffff"></path><g id="SvgjsG1106"><text id="SvgjsText1107" font-family="Impact" text-anchor="middle" font-size="13px" width="89px" fill="#323232" font-weight="700" align="middle" anchor="middle" family="Impact" size="13px" weight="700" font-style="" opacity="1" y="7.05" transform="rotate(0)"><tspan id="SvgjsTspan1108" dy="16" x="54.5"><tspan id="SvgjsTspan1109" style="text-decoration:;">reduceByKey</tspan></tspan></text></g></g><g id="SvgjsG1110" transform="translate(604,437)"><path id="SvgjsPath1111" d="M 0 0L 109 0L 109 34L 0 34Z" stroke="rgba(50,50,50,1)" stroke-width="2" fill-opacity="1" fill="#ffffff"></path><g id="SvgjsG1112"><text id="SvgjsText1113" font-family="Impact" text-anchor="middle" font-size="16px" width="89px" fill="#323232" font-weight="700" align="middle" anchor="middle" family="Impact" size="16px" weight="700" font-style="" opacity="1" y="4.6" transform="rotate(0)"><tspan id="SvgjsTspan1114" dy="20" x="54.5"><tspan id="SvgjsTspan1115" style="text-decoration:;">sink</tspan></tspan></text></g></g><g id="SvgjsG1116" transform="translate(201.5,355.5)"><path id="SvgjsPath1117" d="M 0 0L 218 0L 218 24.5L 0 24.5Z" stroke="none" fill="none"></path><g id="SvgjsG1118"><text id="SvgjsText1119" font-family="Impact" text-anchor="middle" font-size="13px" width="218px" fill="#007fff" font-weight="700" align="middle" anchor="middle" family="Impact" size="13px" weight="700" font-style="" opacity="1" y="2.3" transform="rotate(0)"><tspan id="SvgjsTspan1120" dy="16" x="109"><tspan id="SvgjsTspan1121" style="text-decoration:;">Graph</tspan></tspan></text></g></g><g id="SvgjsG1122" transform="translate(495,355.5)"><path id="SvgjsPath1123" d="M 0 0L 218 0L 218 24.5L 0 24.5Z" stroke="none" fill="none"></path><g id="SvgjsG1124"><text id="SvgjsText1125" font-family="Impact" text-anchor="middle" font-size="13px" width="218px" fill="#007fff" font-weight="700" align="middle" anchor="middle" family="Impact" size="13px" weight="700" font-style="" opacity="1" y="2.3" transform="rotate(0)"><tspan id="SvgjsTspan1126" dy="16" x="109"><tspan id="SvgjsTspan1127" style="text-decoration:;">DataFlow</tspan></tspan></text></g></g><g id="SvgjsG1128"><path id="SvgjsPath1129" d="M86 258L442 258L442 258L798 258" stroke-dasharray="3,3" stroke="#323232" stroke-width="2" fill="none"></path></g><g id="SvgjsG1130" transform="translate(35,277)"><path id="SvgjsPath1131" d="M 0 0L 160 0L 160 40L 0 40Z" stroke="none" fill="none"></path><g id="SvgjsG1132"><text id="SvgjsText1133" font-family="Impact" text-anchor="middle" font-size="13px" width="160px" fill="#323232" font-weight="700" align="middle" anchor="middle" family="Impact" size="13px" weight="700" font-style="" opacity="1" y="10.05" transform="rotate(0)"><tspan id="SvgjsTspan1134" dy="16" x="80"><tspan id="SvgjsTspan1135" style="text-decoration:;">DSL</tspan></tspan></text></g></g><g id="SvgjsG1136" transform="translate(173,280)"><path id="SvgjsPath1137" d="M 0 0L 275 0L 275 49L 0 49Z" stroke="rgba(50,50,50,1)" stroke-width="2" fill-opacity="1" fill="#e5e5e5"></path><g id="SvgjsG1138"><text id="SvgjsText1139" font-family="Impact" text-anchor="middle" font-size="13px" width="255px" fill="#323232" font-weight="400" align="middle" anchor="middle" family="Impact" size="13px" weight="400" font-style="" opacity="1" y="14.55" transform="rotate(0)"><tspan id="SvgjsTspan1140" dy="16" x="137.5"><tspan id="SvgjsTspan1141" style="text-decoration:;">Gremlin</tspan></tspan></text></g></g><g id="SvgjsG1142" transform="translate(457,280)"><path id="SvgjsPath1143" d="M 0 0L 277 0L 277 49L 0 49Z" stroke="rgba(50,50,50,1)" stroke-width="2" fill-opacity="1" fill="#e5e5e5"></path><g id="SvgjsG1144"><text id="SvgjsText1145" font-family="Impact" text-anchor="middle" font-size="13px" width="257px" fill="#323232" font-weight="400" align="middle" anchor="middle" family="Impact" size="13px" weight="400" font-style="" opacity="1" y="14.55" transform="rotate(0)"><tspan id="SvgjsTspan1146" dy="16" x="138.5"><tspan id="SvgjsTspan1147" style="text-decoration:;">SQL</tspan></tspan></text></g></g><g id="SvgjsG1148"><path id="SvgjsPath1149" d="M87 161L443 161L443 161L799 161" stroke-dasharray="3,3" stroke="#323232" stroke-width="2" fill="none"></path></g><g id="SvgjsG1150" transform="translate(35,193)"><path id="SvgjsPath1151" d="M 0 0L 160 0L 160 40L 0 40Z" stroke="none" fill="none"></path><g id="SvgjsG1152"><text id="SvgjsText1153" font-family="Impact" text-anchor="middle" font-size="13px" width="160px" fill="#323232" font-weight="700" align="middle" anchor="middle" family="Impact" size="13px" weight="700" font-style="" opacity="1" y="10.05" transform="rotate(0)"><tspan id="SvgjsTspan1154" dy="16" x="80"><tspan id="SvgjsTspan1155" style="text-decoration:;">module</tspan></tspan></text></g></g><g id="SvgjsG1156" transform="translate(175,175)"><path id="SvgjsPath1157" d="M 0 0L 128 0L 128 25L 0 25Z" stroke="rgba(50,50,50,1)" stroke-width="2" fill-opacity="1" fill="#ffffff"></path><g id="SvgjsG1158"><text id="SvgjsText1159" font-family="Impact" text-anchor="middle" font-size="13px" width="108px" fill="#323232" font-weight="400" align="middle" anchor="middle" family="Impact" size="13px" weight="400" font-style="" opacity="1" y="2.55" transform="rotate(0)"><tspan id="SvgjsTspan1160" dy="16" x="64"><tspan id="SvgjsTspan1161" style="text-decoration:;">Weight</tspan></tspan></text></g></g><g id="SvgjsG1162" transform="translate(314,175)"><path id="SvgjsPath1163" d="M 0 0L 131 0L 131 25L 0 25Z" stroke="rgba(50,50,50,1)" stroke-width="2" fill-opacity="1" fill="#ffffff"></path><g id="SvgjsG1164"><text id="SvgjsText1165" font-family="Impact" text-anchor="middle" font-size="13px" width="111px" fill="#323232" font-weight="400" align="middle" anchor="middle" family="Impact" size="13px" weight="400" font-style="" opacity="1" y="2.55" transform="rotate(0)"><tspan id="SvgjsTspan1166" dy="16" x="65.5"><tspan id="SvgjsTspan1167" style="text-decoration:;">Louvain</tspan></tspan></text></g></g><g id="SvgjsG1168" transform="translate(454,175)"><path id="SvgjsPath1169" d="M 0 0L 130 0L 130 25L 0 25Z" stroke="rgba(50,50,50,1)" stroke-width="2" fill-opacity="1" fill="#ffffff"></path><g id="SvgjsG1170"><text id="SvgjsText1171" font-family="Impact" text-anchor="middle" font-size="13px" width="110px" fill="#323232" font-weight="400" align="middle" anchor="middle" family="Impact" size="13px" weight="400" font-style="" opacity="1" y="2.55" transform="rotate(0)"><tspan id="SvgjsTspan1172" dy="16" x="65"><tspan id="SvgjsTspan1173" style="text-decoration:;">GCN</tspan></tspan></text></g></g><g id="SvgjsG1174" transform="translate(595.5,175)"><path id="SvgjsPath1175" d="M 0 0L 126 0L 126 25L 0 25Z" stroke="rgba(50,50,50,1)" stroke-width="2" fill-opacity="1" fill="#ffffff"></path><g id="SvgjsG1176"><text id="SvgjsText1177" font-family="Impact" text-anchor="middle" font-size="13px" width="106px" fill="#323232" font-weight="400" align="middle" anchor="middle" family="Impact" size="13px" weight="400" font-style="" opacity="1" y="2.55" transform="rotate(0)"><tspan id="SvgjsTspan1178" dy="16" x="63"><tspan id="SvgjsTspan1179" style="text-decoration:;">Boson</tspan></tspan></text></g></g><g id="SvgjsG1180" transform="translate(175,213)"><path id="SvgjsPath1181" d="M 0 0L 128 0L 128 25L 0 25Z" stroke="rgba(50,50,50,1)" stroke-width="2" fill-opacity="1" fill="#ffffff"></path><g id="SvgjsG1182"><text id="SvgjsText1183" font-family="Impact" text-anchor="middle" font-size="13px" width="108px" fill="#323232" font-weight="400" align="middle" anchor="middle" family="Impact" size="13px" weight="400" font-style="" opacity="1" y="2.55" transform="rotate(0)"><tspan id="SvgjsTspan1184" dy="16" x="64"><tspan id="SvgjsTspan1185" style="text-decoration:;">relativer</tspan></tspan></text></g></g><g id="SvgjsG1186" transform="translate(315.5,213)"><path id="SvgjsPath1187" d="M 0 0L 128 0L 128 25L 0 25Z" stroke="rgba(50,50,50,1)" stroke-width="2" fill-opacity="1" fill="#ffffff"></path><g id="SvgjsG1188"><text id="SvgjsText1189" font-family="Impact" text-anchor="middle" font-size="13px" width="108px" fill="#323232" font-weight="400" align="middle" anchor="middle" family="Impact" size="13px" weight="400" font-style="" opacity="1" y="2.55" transform="rotate(0)"><tspan id="SvgjsTspan1190" dy="16" x="64"><tspan id="SvgjsTspan1191" style="text-decoration:;">velocity</tspan></tspan></text></g></g><g id="SvgjsG1192" transform="translate(454,213)"><path id="SvgjsPath1193" d="M 0 0L 130 0L 130 25L 0 25Z" stroke="rgba(50,50,50,1)" stroke-width="2" fill-opacity="1" fill="#ffffff"></path><g id="SvgjsG1194"><text id="SvgjsText1195" font-family="Impact" text-anchor="middle" font-size="13px" width="110px" fill="#323232" font-weight="400" align="middle" anchor="middle" family="Impact" size="13px" weight="400" font-style="" opacity="1" y="2.55" transform="rotate(0)"><tspan id="SvgjsTspan1196" dy="16" x="65"><tspan id="SvgjsTspan1197" style="text-decoration:;">Indicator</tspan></tspan></text></g></g><g id="SvgjsG1198" transform="translate(595.5,213)"><path id="SvgjsPath1199" d="M 0 0L 130 0L 130 25L 0 25Z" stroke="rgba(50,50,50,1)" stroke-width="2" fill-opacity="1" fill="#ffffff"></path><g id="SvgjsG1200"><text id="SvgjsText1201" font-family="Impact" text-anchor="middle" font-size="13px" width="110px" fill="#323232" font-weight="400" align="middle" anchor="middle" family="Impact" size="13px" weight="400" font-style="" opacity="1" y="2.55" transform="rotate(0)"><tspan id="SvgjsTspan1202" dy="16" x="65"><tspan id="SvgjsTspan1203" style="text-decoration:;">.....................</tspan></tspan></text></g></g><g id="SvgjsG1204" transform="translate(175,98)"><path id="SvgjsPath1205" d="M 0 0L 546.5 0L 546.5 40L 0 40Z" stroke="rgba(0,0,0,1)" stroke-width="2" fill-opacity="1" fill="#ffffff"></path><g id="SvgjsG1206"><text id="SvgjsText1207" font-family="Impact" text-anchor="middle" font-size="13px" width="527px" fill="#323232" font-weight="400" align="middle" anchor="middle" family="Impact" size="13px" weight="400" font-style="" opacity="1" y="10.05" transform="rotate(0)"><tspan id="SvgjsTspan1208" dy="16" x="273.5"><tspan id="SvgjsTspan1209" style="text-decoration:;">Halo</tspan></tspan></text></g></g><g id="SvgjsG1210" transform="translate(41.5,98)"><path id="SvgjsPath1211" d="M 0 0L 160 0L 160 40L 0 40Z" stroke="none" fill="none"></path><g id="SvgjsG1212"><text id="SvgjsText1213" font-family="Impact" text-anchor="middle" font-size="13px" width="160px" fill="#323232" font-weight="700" align="middle" anchor="middle" family="Impact" size="13px" weight="700" font-style="" opacity="1" y="10.05" transform="rotate(0)"><tspan id="SvgjsTspan1214" dy="16" x="80"><tspan id="SvgjsTspan1215" style="text-decoration:;">scheduler</tspan></tspan></text></g></g></svg>