<svg id="SvgjsSvg1006" width="1110.4375" height="1554.875" xmlns="http://www.w3.org/2000/svg" version="1.1" xmlns:xlink="http://www.w3.org/1999/xlink" xmlns:svgjs="http://svgjs.com/svgjs"><defs id="SvgjsDefs1007"><marker id="SvgjsMarker1249" markerWidth="16" markerHeight="12" refX="16" refY="6" viewBox="0 0 16 12" orient="auto" markerUnits="userSpaceOnUse" stroke-dasharray="0,0"><path id="SvgjsPath1250" d="M0,2 L14,6 L0,11 L0,2" fill="#323232" stroke="#323232" stroke-width="2"></path></marker><marker id="SvgjsMarker1253" markerWidth="16" markerHeight="12" refX="16" refY="6" viewBox="0 0 16 12" orient="auto" markerUnits="userSpaceOnUse" stroke-dasharray="0,0"><path id="SvgjsPath1254" d="M0,2 L14,6 L0,11 L0,2" fill="#323232" stroke="#323232" stroke-width="2"></path></marker><marker id="SvgjsMarker1257" markerWidth="16" markerHeight="12" refX="16" refY="6" viewBox="0 0 16 12" orient="auto" markerUnits="userSpaceOnUse" stroke-dasharray="0,0"><path id="SvgjsPath1258" d="M0,2 L14,6 L0,11 L0,2" fill="#323232" stroke="#323232" stroke-width="2"></path></marker><marker id="SvgjsMarker1271" markerWidth="16" markerHeight="12" refX="16" refY="6" viewBox="0 0 16 12" orient="auto" markerUnits="userSpaceOnUse" stroke-dasharray="0,0"><path id="SvgjsPath1272" d="M0,2 L14,6 L0,11 L0,2" fill="#323232" stroke="#323232" stroke-width="2"></path></marker><marker id="SvgjsMarker1275" markerWidth="16" markerHeight="12" refX="16" refY="6" viewBox="0 0 16 12" orient="auto" markerUnits="userSpaceOnUse" stroke-dasharray="0,0"><path id="SvgjsPath1276" d="M0,2 L14,6 L0,11 L0,2" fill="#323232" stroke="#323232" stroke-width="2"></path></marker><marker id="SvgjsMarker1279" markerWidth="16" markerHeight="12" refX="16" refY="6" viewBox="0 0 16 12" orient="auto" markerUnits="userSpaceOnUse" stroke-dasharray="0,0"><path id="SvgjsPath1280" d="M0,2 L14,6 L0,11 L0,2" fill="#323232" stroke="#323232" stroke-width="2"></path></marker><marker id="SvgjsMarker1283" markerWidth="16" markerHeight="12" refX="16" refY="6" viewBox="0 0 16 12" orient="auto" markerUnits="userSpaceOnUse" stroke-dasharray="0,0"><path id="SvgjsPath1284" d="M0,2 L14,6 L0,11 L0,2" fill="#323232" stroke="#323232" stroke-width="2"></path></marker><marker id="SvgjsMarker1287" markerWidth="16" markerHeight="12" refX="16" refY="6" viewBox="0 0 16 12" orient="auto" markerUnits="userSpaceOnUse" stroke-dasharray="0,0"><path id="SvgjsPath1288" d="M0,2 L14,6 L0,11 L0,2" fill="#323232" stroke="#323232" stroke-width="2"></path></marker><marker id="SvgjsMarker1291" markerWidth="16" markerHeight="12" refX="16" refY="6" viewBox="0 0 16 12" orient="auto" markerUnits="userSpaceOnUse" stroke-dasharray="0,0"><path id="SvgjsPath1292" d="M0,2 L14,6 L0,11 L0,2" fill="#323232" stroke="#323232" stroke-width="2"></path></marker><marker id="SvgjsMarker1295" markerWidth="16" markerHeight="12" refX="16" refY="6" viewBox="0 0 16 12" orient="auto" markerUnits="userSpaceOnUse" stroke-dasharray="0,0"><path id="SvgjsPath1296" d="M0,2 L14,6 L0,11 L0,2" fill="#323232" stroke="#323232" stroke-width="2"></path></marker><marker id="SvgjsMarker1319" markerWidth="16" markerHeight="12" refX="16" refY="6" viewBox="0 0 16 12" orient="auto" markerUnits="userSpaceOnUse" stroke-dasharray="0,0"><path id="SvgjsPath1320" d="M0,2 L14,6 L0,11 L0,2" fill="#323232" stroke="#323232" stroke-width="2"></path></marker></defs><g id="SvgjsG1008" transform="translate(232.5,1123.8125)"><path id="SvgjsPath1009" d="M 0 0L 675.5 0L 675.5 163.375L 0 163.375Z" stroke="rgba(50,50,50,1)" stroke-width="2" fill-opacity="1" fill="#99ffcc"></path><g id="SvgjsG1010"><text id="SvgjsText1011" font-family="微软雅黑" text-anchor="middle" font-size="13px" width="656px" fill="#323232" font-weight="400" align="middle" anchor="middle" family="微软雅黑" size="13px" weight="400" font-style="" opacity="1" y="71.7375" transform="rotate(0)"></text></g></g><g id="SvgjsG1012" transform="translate(31,1198)"><path id="SvgjsPath1013" d="M 0 0L 160 0L 160 40L 0 40Z" stroke="none" fill="none"></path><g id="SvgjsG1014"><text id="SvgjsText1015" font-family="微软雅黑" text-anchor="middle" font-size="25px" width="160px" fill="#ff6666" font-weight="700" align="middle" anchor="middle" family="微软雅黑" size="25px" weight="700" font-style="" opacity="1" y="-1.25" transform="rotate(0)"><tspan id="SvgjsTspan1016" dy="31" x="80"><tspan id="SvgjsTspan1017" style="text-decoration:;">预聚合</tspan></tspan></text></g></g><g id="SvgjsG1018" transform="translate(31,907)"><path id="SvgjsPath1019" d="M 0 0L 160 0L 160 40L 0 40Z" stroke="none" fill="none"></path><g id="SvgjsG1020"><text id="SvgjsText1021" font-family="微软雅黑" text-anchor="middle" font-size="25px" width="160px" fill="#ff3333" font-weight="700" align="middle" anchor="middle" family="微软雅黑" size="25px" weight="700" font-style="" opacity="1" y="-1.25" transform="rotate(0)"><tspan id="SvgjsTspan1022" dy="31" x="80"><tspan id="SvgjsTspan1023" style="text-decoration:;">协议计算</tspan></tspan></text></g></g><g id="SvgjsG1024" transform="translate(240.75,1164.5)"><path id="SvgjsPath1025" d="M 0 0L 105.5 0L 105.5 82L 0 82Z" stroke="rgba(50,50,50,1)" stroke-width="2" fill-opacity="1" fill="#ffffff"></path><g id="SvgjsG1026"><text id="SvgjsText1027" font-family="微软雅黑" text-anchor="middle" font-size="13px" width="86px" fill="#323232" font-weight="400" align="middle" anchor="middle" family="微软雅黑" size="13px" weight="400" font-style="" opacity="1" y="-0.95" transform="rotate(0)"><tspan id="SvgjsTspan1028" dy="16" x="53"><tspan id="SvgjsTspan1029" style="text-decoration:;">driver </tspan></tspan><tspan id="SvgjsTspan1030" dy="16" x="53"><tspan id="SvgjsTspan1031" style="text-decoration:;">broadcast到</tspan></tspan><tspan id="SvgjsTspan1032" dy="16" x="53"><tspan id="SvgjsTspan1033" style="text-decoration:;">聚合明细每个</tspan></tspan><tspan id="SvgjsTspan1034" dy="16" x="53"><tspan id="SvgjsTspan1035" style="text-decoration:;">partition(减少</tspan></tspan><tspan id="SvgjsTspan1036" dy="16" x="53"><tspan id="SvgjsTspan1037" style="text-decoration:;">shuffle)</tspan></tspan></text></g></g><g id="SvgjsG1038" transform="translate(439,1167)"><path id="SvgjsPath1039" d="M 0 0L 53 0L 53 71L 0 71Z" stroke="rgba(50,50,50,1)" stroke-width="2" fill-opacity="1" fill="#ffffff"></path><g id="SvgjsG1040"><text id="SvgjsText1041" font-family="微软雅黑" text-anchor="middle" font-size="13px" width="33px" fill="#323232" font-weight="400" align="middle" anchor="middle" family="微软雅黑" size="13px" weight="400" font-style="" opacity="1" y="1.55" transform="rotate(0)"><tspan id="SvgjsTspan1042" dy="16" x="26.5"><tspan id="SvgjsTspan1043" style="text-decoration:;">聚合</tspan></tspan><tspan id="SvgjsTspan1044" dy="16" x="26.5"><tspan id="SvgjsTspan1045" style="text-decoration:;">明细</tspan></tspan><tspan id="SvgjsTspan1046" dy="16" x="26.5"><tspan id="SvgjsTspan1047" style="text-decoration:;">partit</tspan></tspan><tspan id="SvgjsTspan1048" dy="16" x="26.5"><tspan id="SvgjsTspan1049" style="text-decoration:;">ion1</tspan></tspan></text></g></g><g id="SvgjsG1050" transform="translate(789.5,1170.5)"><path id="SvgjsPath1051" d="M 0 0L 100 0L 100 70L 0 70Z" stroke="rgba(50,50,50,1)" stroke-width="2" fill-opacity="1" fill="#ffffff"></path><g id="SvgjsG1052"><text id="SvgjsText1053" font-family="微软雅黑" text-anchor="middle" font-size="13px" width="80px" fill="#323232" font-weight="400" align="middle" anchor="middle" family="微软雅黑" size="13px" weight="400" font-style="" opacity="1" y="9.05" transform="rotate(0)"><tspan id="SvgjsTspan1054" dy="16" x="50"><tspan id="SvgjsTspan1055" style="text-decoration:;">根据驱动表加</tspan></tspan><tspan id="SvgjsTspan1056" dy="16" x="50"><tspan id="SvgjsTspan1057" style="text-decoration:;">工好的主体明</tspan></tspan><tspan id="SvgjsTspan1058" dy="16" x="50"><tspan id="SvgjsTspan1059" style="text-decoration:;">细值</tspan></tspan></text></g></g><g id="SvgjsG1060" transform="translate(231.70000457763672,874.25)"><path id="SvgjsPath1061" d="M 0 0L 677.0999908447266 0L 677.0999908447266 119.75L 0 119.75Z" stroke="rgba(50,50,50,1)" stroke-width="2" fill-opacity="1" fill="#99ccff"></path><g id="SvgjsG1062"><text id="SvgjsText1063" font-family="微软雅黑" text-anchor="middle" font-size="13px" width="658px" fill="#323232" font-weight="400" align="middle" anchor="middle" family="微软雅黑" size="13px" weight="400" font-style="" opacity="1" y="49.925" transform="rotate(0)"></text></g></g><g id="SvgjsG1064" transform="translate(282.5,896)"><path id="SvgjsPath1065" d="M 0 0L 100 0L 100 70L 0 70Z" stroke="rgba(50,50,50,1)" stroke-width="2" fill-opacity="1" fill="#ffffff"></path><g id="SvgjsG1066"><text id="SvgjsText1067" font-family="微软雅黑" text-anchor="middle" font-size="13px" width="80px" fill="#323232" font-weight="400" align="middle" anchor="middle" family="微软雅黑" size="13px" weight="400" font-style="" opacity="1" y="25.05" transform="rotate(0)"><tspan id="SvgjsTspan1068" dy="16" x="50"><tspan id="SvgjsTspan1069" style="text-decoration:;">协议protocol</tspan></tspan></text></g></g><g id="SvgjsG1070" transform="translate(437.5,896)"><path id="SvgjsPath1071" d="M 0 0L 100 0L 100 70L 0 70Z" stroke="rgba(50,50,50,1)" stroke-width="2" fill-opacity="1" fill="#ffffff"></path><g id="SvgjsG1072"><text id="SvgjsText1073" font-family="微软雅黑" text-anchor="middle" font-size="13px" width="80px" fill="#323232" font-weight="400" align="middle" anchor="middle" family="微软雅黑" size="13px" weight="400" font-style="" opacity="1" y="1.05" transform="rotate(0)"><tspan id="SvgjsTspan1074" dy="16" x="50"><tspan id="SvgjsTspan1075" style="text-decoration:;">根据协议主体</tspan></tspan><tspan id="SvgjsTspan1076" dy="16" x="50"><tspan id="SvgjsTspan1077" style="text-decoration:;">和前置过滤规</tspan></tspan><tspan id="SvgjsTspan1078" dy="16" x="50"><tspan id="SvgjsTspan1079" style="text-decoration:;">则 从加工好</tspan></tspan><tspan id="SvgjsTspan1080" dy="16" x="50"><tspan id="SvgjsTspan1081" style="text-decoration:;">的明细中捞数</tspan></tspan></text></g></g><g id="SvgjsG1082" transform="translate(595.7000045776367,896)"><path id="SvgjsPath1083" d="M 0 0L 100 0L 100 70L 0 70Z" stroke="rgba(50,50,50,1)" stroke-width="2" fill-opacity="1" fill="#ffffff"></path><g id="SvgjsG1084"><text id="SvgjsText1085" font-family="微软雅黑" text-anchor="middle" font-size="13px" width="80px" fill="#323232" font-weight="400" align="middle" anchor="middle" family="微软雅黑" size="13px" weight="400" font-style="" opacity="1" y="9.05" transform="rotate(0)"><tspan id="SvgjsTspan1086" dy="16" x="50"><tspan id="SvgjsTspan1087" style="text-decoration:;">根据协议</tspan></tspan><tspan id="SvgjsTspan1088" dy="16" x="50"><tspan id="SvgjsTspan1089" style="text-decoration:;">function计算</tspan></tspan><tspan id="SvgjsTspan1090" dy="16" x="50"><tspan id="SvgjsTspan1091" style="text-decoration:;">协议值</tspan></tspan></text></g></g><g id="SvgjsG1092" transform="translate(747.5,896)"><path id="SvgjsPath1093" d="M 0 0L 100 0L 100 70L 0 70Z" stroke="rgba(50,50,50,1)" stroke-width="2" fill-opacity="1" fill="#ffffff"></path><g id="SvgjsG1094"><text id="SvgjsText1095" font-family="微软雅黑" text-anchor="middle" font-size="13px" width="80px" fill="#323232" font-weight="400" align="middle" anchor="middle" family="微软雅黑" size="13px" weight="400" font-style="" opacity="1" y="25.05" transform="rotate(0)"><tspan id="SvgjsTspan1096" dy="16" x="50"><tspan id="SvgjsTspan1097" style="text-decoration:;">返回</tspan></tspan></text></g></g><g id="SvgjsG1098" transform="translate(513.2999954223633,1167)"><path id="SvgjsPath1099" d="M 0 0L 53 0L 53 71L 0 71Z" stroke="rgba(50,50,50,1)" stroke-width="2" fill-opacity="1" fill="#ffffff"></path><g id="SvgjsG1100"><text id="SvgjsText1101" font-family="微软雅黑" text-anchor="middle" font-size="13px" width="33px" fill="#323232" font-weight="400" align="middle" anchor="middle" family="微软雅黑" size="13px" weight="400" font-style="" opacity="1" y="1.55" transform="rotate(0)"><tspan id="SvgjsTspan1102" dy="16" x="26.5"><tspan id="SvgjsTspan1103" style="text-decoration:;">聚合</tspan></tspan><tspan id="SvgjsTspan1104" dy="16" x="26.5"><tspan id="SvgjsTspan1105" style="text-decoration:;">明细</tspan></tspan><tspan id="SvgjsTspan1106" dy="16" x="26.5"><tspan id="SvgjsTspan1107" style="text-decoration:;">partit</tspan></tspan><tspan id="SvgjsTspan1108" dy="16" x="26.5"><tspan id="SvgjsTspan1109" style="text-decoration:;">ion2</tspan></tspan></text></g></g><g id="SvgjsG1110" transform="translate(643.2999954223633,1167)"><path id="SvgjsPath1111" d="M 0 0L 53 0L 53 71L 0 71Z" stroke="rgba(50,50,50,1)" stroke-width="2" fill-opacity="1" fill="#ffffff"></path><g id="SvgjsG1112"><text id="SvgjsText1113" font-family="微软雅黑" text-anchor="middle" font-size="13px" width="33px" fill="#323232" font-weight="400" align="middle" anchor="middle" family="微软雅黑" size="13px" weight="400" font-style="" opacity="1" y="1.55" transform="rotate(0)"><tspan id="SvgjsTspan1114" dy="16" x="26.5"><tspan id="SvgjsTspan1115" style="text-decoration:;">聚合</tspan></tspan><tspan id="SvgjsTspan1116" dy="16" x="26.5"><tspan id="SvgjsTspan1117" style="text-decoration:;">明细</tspan></tspan><tspan id="SvgjsTspan1118" dy="16" x="26.5"><tspan id="SvgjsTspan1119" style="text-decoration:;">partit</tspan></tspan><tspan id="SvgjsTspan1120" dy="16" x="26.5"><tspan id="SvgjsTspan1121" style="text-decoration:;">ion...</tspan></tspan></text></g></g><g id="SvgjsG1122" transform="translate(525.5,1178.5)"><path id="SvgjsPath1123" d="M 0 0L 160 0L 160 40L 0 40Z" stroke="none" fill="none"></path><g id="SvgjsG1124"><text id="SvgjsText1125" font-family="微软雅黑" text-anchor="middle" font-size="13px" width="160px" fill="#ff6666" font-weight="700" align="middle" anchor="middle" family="微软雅黑" size="13px" weight="700" font-style="" opacity="1" y="10.05" transform="rotate(0)"><tspan id="SvgjsTspan1126" dy="16" x="80"><tspan id="SvgjsTspan1127" style="text-decoration:;">.........&lt;/br&gt;.........</tspan></tspan></text></g></g><g id="SvgjsG1128" transform="translate(409,1141.5)"><path id="SvgjsPath1129" d="M 18 0L 0 12.8L 0 115.2L 18 128M 299 128L 317 115.2L 317 12.8L 299 0" stroke="rgba(50,50,50,1)" stroke-width="2" fill="none"></path><path id="SvgjsPath1130" d="M 0 0L 317 0L 317 128L 0 128Z" stroke="none" fill="none"></path><g id="SvgjsG1131"><text id="SvgjsText1132" font-family="微软雅黑" text-anchor="middle" font-size="13px" width="297px" fill="#323232" font-weight="400" align="middle" anchor="middle" family="微软雅黑" size="13px" weight="400" font-style="" opacity="1" y="54.05" transform="rotate(0)"></text></g></g><g id="SvgjsG1133" transform="translate(235,1395.875)"><path id="SvgjsPath1134" d="M 0 0L 670.5 0L 670.5 134.25L 0 134.25Z" stroke="rgba(50,50,50,1)" stroke-width="2" fill-opacity="1" fill="#ffffcc"></path><g id="SvgjsG1135"><text id="SvgjsText1136" font-family="微软雅黑" text-anchor="middle" font-size="13px" width="651px" fill="#323232" font-weight="400" align="middle" anchor="middle" family="微软雅黑" size="13px" weight="400" font-style="" opacity="1" y="57.175" transform="rotate(0)"></text></g></g><g id="SvgjsG1137" transform="translate(285,1428)"><path id="SvgjsPath1138" d="M 0 0L 100 0L 100 70L 0 70Z" stroke="rgba(50,50,50,1)" stroke-width="2" fill-opacity="1" fill="#ffffff"></path><g id="SvgjsG1139"><text id="SvgjsText1140" font-family="微软雅黑" text-anchor="middle" font-size="13px" width="80px" fill="#323232" font-weight="400" align="middle" anchor="middle" family="微软雅黑" size="13px" weight="400" font-style="" opacity="1" y="17.05" transform="rotate(0)"><tspan id="SvgjsTspan1141" dy="16" x="50"><tspan id="SvgjsTspan1142" style="text-decoration:;">每次触发当日</tspan></tspan><tspan id="SvgjsTspan1143" dy="16" x="50"><tspan id="SvgjsTspan1144" style="text-decoration:;">清洗</tspan></tspan></text></g></g><g id="SvgjsG1145" transform="translate(497.5,1420.5)"><path id="SvgjsPath1146" d="M 0 0L 128 0L 128 85L 0 85Z" stroke="rgba(50,50,50,1)" stroke-width="2" fill-opacity="1" fill="#ffffff"></path><g id="SvgjsG1147"><text id="SvgjsText1148" font-family="微软雅黑" text-anchor="middle" font-size="13px" width="108px" fill="#323232" font-weight="400" align="middle" anchor="middle" family="微软雅黑" size="13px" weight="400" font-style="" opacity="1" y="16.55" transform="rotate(0)"><tspan id="SvgjsTspan1149" dy="16" x="64"><tspan id="SvgjsTspan1150" style="text-decoration:;">根据事件表和，主</tspan></tspan><tspan id="SvgjsTspan1151" dy="16" x="64"><tspan id="SvgjsTspan1152" style="text-decoration:;">体，客体，过滤值</tspan></tspan><tspan id="SvgjsTspan1153" dy="16" x="64"><tspan id="SvgjsTspan1154" style="text-decoration:;">范围清洗聚合明细</tspan></tspan></text></g></g><g id="SvgjsG1155" transform="translate(768.7000045776367,1428)"><path id="SvgjsPath1156" d="M 0 0L 100 0L 100 70L 0 70Z" stroke="rgba(50,50,50,1)" stroke-width="2" fill-opacity="1" fill="#ffffff"></path><g id="SvgjsG1157"><text id="SvgjsText1158" font-family="微软雅黑" text-anchor="middle" font-size="13px" width="80px" fill="#323232" font-weight="400" align="middle" anchor="middle" family="微软雅黑" size="13px" weight="400" font-style="" opacity="1" y="17.05" transform="rotate(0)"><tspan id="SvgjsTspan1159" dy="16" x="50"><tspan id="SvgjsTspan1160" style="text-decoration:;">加工为指定明</tspan></tspan><tspan id="SvgjsTspan1161" dy="16" x="50"><tspan id="SvgjsTspan1162" style="text-decoration:;">细格式</tspan></tspan></text></g></g><g id="SvgjsG1163" transform="translate(25,1437)"><path id="SvgjsPath1164" d="M 0 0L 160 0L 160 40L 0 40Z" stroke="none" fill="none"></path><g id="SvgjsG1165"><text id="SvgjsText1166" font-family="微软雅黑" text-anchor="middle" font-size="25px" width="160px" fill="#ff6666" font-weight="700" align="middle" anchor="middle" family="微软雅黑" size="25px" weight="700" font-style="" opacity="1" y="-1.25" transform="rotate(0)"><tspan id="SvgjsTspan1167" dy="31" x="80"><tspan id="SvgjsTspan1168" style="text-decoration:;">预清洗</tspan></tspan></text></g></g><g id="SvgjsG1169"><path id="SvgjsPath1170" d="M558.8000045776366 326.875L401.0499954223633 429.2230762113533" stroke="#323232" stroke-width="2" fill="none"></path></g><g id="SvgjsG1171"><path id="SvgjsPath1172" d="M558.8000045776366 326.875L783.4500045776367 424.625" stroke="#323232" stroke-width="2" fill="none"></path></g><g id="SvgjsG1173" transform="translate(348.5499954223633,424.625)"><path id="SvgjsPath1174" d="M 0 35C 0 -11.666666666666666 70 -11.666666666666666 70 35C 70 81.66666666666667 0 81.66666666666667 0 35Z" stroke="rgba(50,50,50,1)" stroke-width="2" fill-opacity="1" fill="#ffffff"></path><g id="SvgjsG1175"><text id="SvgjsText1176" font-family="微软雅黑" text-anchor="middle" font-size="16px" width="50px" fill="#323232" font-weight="400" align="middle" anchor="middle" family="微软雅黑" size="16px" weight="400" font-style="" opacity="1" y="22.6" transform="rotate(0)"><tspan id="SvgjsTspan1177" dy="20" x="35"><tspan id="SvgjsTspan1178" style="text-decoration:;">userid</tspan></tspan></text></g></g><g id="SvgjsG1179"><path id="SvgjsPath1180" d="M360.25710220354983 485.91789321881345L271.5499954223633 542.625" stroke="#323232" stroke-width="2" fill="none"></path></g><g id="SvgjsG1181"><path id="SvgjsPath1182" d="M406.33605737393054 486.79477778440514L476.7999954223633 550.125" stroke="#323232" stroke-width="2" fill="none"></path></g><g id="SvgjsG1183" transform="translate(299.4500045776367,194.375)"><path id="SvgjsPath1184" d="M 54.6 92.75C -45.5 66.25 18.2 46.375 40.949999999999996 39.75C 31.85 6.625 145.6 0 191.1 13.25C 227.5 -6.625 341.25 0 341.25 19.875C 432.25 13.25 468.65000000000003 39.75 432.25 72.875C 464.1 99.375 432.25 132.5 327.59999999999997 119.25C 304.85 136.475 213.85 136.475 191.1 119.25C 145.6 132.5 54.6 125.875 54.6 92.75Z" stroke="rgba(50,50,50,1)" stroke-width="2" fill-opacity="1" fill="#ffffff"></path><g id="SvgjsG1185"><text id="SvgjsText1186" font-family="微软雅黑" text-anchor="middle" font-size="13px" width="435px" fill="#323232" font-weight="400" align="middle" anchor="middle" family="微软雅黑" size="13px" weight="400" font-style="" opacity="1" y="48.3" transform="rotate(0)"><tspan id="SvgjsTspan1187" dy="16" x="227.5"><tspan id="SvgjsTspan1188" style="text-decoration:;">主体:userid,seller_id,ipv3,uniq_cardIndex&lt;/br&gt;客体：</tspan></tspan><tspan id="SvgjsTspan1189" dy="16" x="227.5"><tspan id="SvgjsTspan1190" style="text-decoration:;">userid,seller_id,fuzzy_device_id&lt;/br&gt;前置规则：amount&gt;100</tspan></tspan></text></g></g><g id="SvgjsG1191" transform="translate(748.4500045776367,424.625)"><path id="SvgjsPath1192" d="M 0 35C 0 -11.666666666666666 70 -11.666666666666666 70 35C 70 81.66666666666667 0 81.66666666666667 0 35Z" stroke="rgba(50,50,50,1)" stroke-width="2" fill-opacity="1" fill="#ffffff"></path><g id="SvgjsG1193"><text id="SvgjsText1194" font-family="微软雅黑" text-anchor="middle" font-size="16px" width="50px" fill="#323232" font-weight="400" align="middle" anchor="middle" family="微软雅黑" size="16px" weight="400" font-style="" opacity="1" y="12.6" transform="rotate(0)"><tspan id="SvgjsTspan1195" dy="20" x="35"><tspan id="SvgjsTspan1196" style="text-decoration:;">cardIn</tspan></tspan><tspan id="SvgjsTspan1197" dy="20" x="35"><tspan id="SvgjsTspan1198" style="text-decoration:;">dex</tspan></tspan></text></g></g><g id="SvgjsG1199" transform="translate(492.5499954223633,427.625)"><path id="SvgjsPath1200" d="M 0 35C 0 -11.666666666666666 70 -11.666666666666666 70 35C 70 81.66666666666667 0 81.66666666666667 0 35Z" stroke="rgba(50,50,50,1)" stroke-width="2" fill-opacity="1" fill="#ffffff"></path><g id="SvgjsG1201"><text id="SvgjsText1202" font-family="微软雅黑" text-anchor="middle" font-size="16px" width="50px" fill="#323232" font-weight="400" align="middle" anchor="middle" family="微软雅黑" size="16px" weight="400" font-style="" opacity="1" y="12.6" transform="rotate(0)"><tspan id="SvgjsTspan1203" dy="20" x="35"><tspan id="SvgjsTspan1204" style="text-decoration:;">seller_</tspan></tspan><tspan id="SvgjsTspan1205" dy="20" x="35"><tspan id="SvgjsTspan1206" style="text-decoration:;">id</tspan></tspan></text></g></g><g id="SvgjsG1207" transform="translate(599.4500045776367,424.625)"><path id="SvgjsPath1208" d="M 0 35C 0 -11.666666666666666 70 -11.666666666666666 70 35C 70 81.66666666666667 0 81.66666666666667 0 35Z" stroke="rgba(50,50,50,1)" stroke-width="2" fill-opacity="1" fill="#ffffff"></path><g id="SvgjsG1209"><text id="SvgjsText1210" font-family="微软雅黑" text-anchor="middle" font-size="16px" width="50px" fill="#323232" font-weight="400" align="middle" anchor="middle" family="微软雅黑" size="16px" weight="400" font-style="" opacity="1" y="22.6" transform="rotate(0)"><tspan id="SvgjsTspan1211" dy="20" x="35"><tspan id="SvgjsTspan1212" style="text-decoration:;">ipv3</tspan></tspan></text></g></g><g id="SvgjsG1213"><path id="SvgjsPath1214" d="M558.8000045776366 326.875L634.4500045776367 424.625" stroke="#323232" stroke-width="2" fill="none"></path></g><g id="SvgjsG1215"><path id="SvgjsPath1216" d="M558.8000045776366 326.875L527.5499954223633 427.625" stroke="#323232" stroke-width="2" fill="none"></path></g><g id="SvgjsG1217" transform="translate(562.5499954223633,585.625)"><path id="SvgjsPath1218" d="M 0 0L 309 0L 309 20L 0 20Z" stroke="none" fill="none"></path><g id="SvgjsG1219"><text id="SvgjsText1220" font-family="微软雅黑" text-anchor="middle" font-size="18px" width="309px" fill="#323232" font-weight="700" align="middle" anchor="middle" family="微软雅黑" size="18px" weight="700" font-style="" opacity="1" y="-4.199999999999999" transform="rotate(0)"><tspan id="SvgjsTspan1221" dy="22" x="154.5"><tspan id="SvgjsTspan1222" style="text-decoration:;">.........................................................</tspan></tspan></text></g></g><g id="SvgjsG1223" transform="translate(236.54999542236328,542.625)"><path id="SvgjsPath1224" d="M 0 35C 0 -11.666666666666666 70 -11.666666666666666 70 35C 70 81.66666666666667 0 81.66666666666667 0 35Z" stroke="rgba(50,50,50,1)" stroke-width="2" fill-opacity="1" fill="#ffffff"></path><g id="SvgjsG1225"><text id="SvgjsText1226" font-family="微软雅黑" text-anchor="middle" font-size="16px" width="50px" fill="#323232" font-weight="400" align="middle" anchor="middle" family="微软雅黑" size="16px" weight="400" font-style="" opacity="1" y="22.6" transform="rotate(0)"><tspan id="SvgjsTspan1227" dy="20" x="35"><tspan id="SvgjsTspan1228" style="text-decoration:;">userid</tspan></tspan></text></g></g><g id="SvgjsG1229" transform="translate(418.5499954223633,550.125)"><path id="SvgjsPath1230" d="M 0 31.5C 0 -10.5 116.5 -10.5 116.5 31.5C 116.5 73.5 0 73.5 0 31.5Z" stroke="rgba(50,50,50,1)" stroke-width="2" fill-opacity="1" fill="#ffffff"></path><g id="SvgjsG1231"><text id="SvgjsText1232" font-family="微软雅黑" text-anchor="middle" font-size="16px" width="97px" fill="#323232" font-weight="400" align="middle" anchor="middle" family="微软雅黑" size="16px" weight="400" font-style="" opacity="1" y="9.1" transform="rotate(0)"><tspan id="SvgjsTspan1233" dy="20" x="58.5"><tspan id="SvgjsTspan1234" style="text-decoration:;">fuzzy_device</tspan></tspan><tspan id="SvgjsTspan1235" dy="20" x="58.5"><tspan id="SvgjsTspan1236" style="text-decoration:;">_id</tspan></tspan></text></g></g><g id="SvgjsG1237" transform="translate(333.4500045776367,546.625)"><path id="SvgjsPath1238" d="M 0 35C 0 -11.666666666666666 70 -11.666666666666666 70 35C 70 81.66666666666667 0 81.66666666666667 0 35Z" stroke="rgba(50,50,50,1)" stroke-width="2" fill-opacity="1" fill="#ffffff"></path><g id="SvgjsG1239"><text id="SvgjsText1240" font-family="微软雅黑" text-anchor="middle" font-size="16px" width="50px" fill="#323232" font-weight="400" align="middle" anchor="middle" family="微软雅黑" size="16px" weight="400" font-style="" opacity="1" y="12.6" transform="rotate(0)"><tspan id="SvgjsTspan1241" dy="20" x="35"><tspan id="SvgjsTspan1242" style="text-decoration:;">seller_</tspan></tspan><tspan id="SvgjsTspan1243" dy="20" x="35"><tspan id="SvgjsTspan1244" style="text-decoration:;">id</tspan></tspan></text></g></g><g id="SvgjsG1245"><path id="SvgjsPath1246" d="M383.5499954223633 494.625L368.4500045776367 546.625" stroke="#323232" stroke-width="2" fill="none"></path></g><g id="SvgjsG1247"><path id="SvgjsPath1248" d="M476.7999954223633 613.125L476.7999954223633 638.875L476.7999954223633 638.875L476.7999954223633 664.625" stroke="#323232" stroke-width="2" fill="none" marker-end="url(#SvgjsMarker1249)"></path></g><g id="SvgjsG1251"><path id="SvgjsPath1252" d="M271.5499954223633 612.625L271.5499954223633 639.125L271.5499954223633 639.125L271.5499954223633 665.625" stroke="#323232" stroke-width="2" fill="none" marker-end="url(#SvgjsMarker1253)"></path></g><g id="SvgjsG1255"><path id="SvgjsPath1256" d="M368.4500045776367 616.625L368.4500045776367 640.125L368.4500045776367 640.125L368.4500045776367 663.625" stroke="#323232" stroke-width="2" fill="none" marker-end="url(#SvgjsMarker1257)"></path></g><g id="SvgjsG1259" transform="translate(219.54999542236328,680.625)"><path id="SvgjsPath1260" d="M 0 0L 701.4000091552734 0L 701.4000091552734 55L 0 55Z" stroke="rgba(50,50,50,1)" stroke-width="2" fill-opacity="1" fill="#ccffff"></path><g id="SvgjsG1261"><text id="SvgjsText1262" font-family="微软雅黑" text-anchor="middle" font-size="13px" width="682px" fill="#323232" font-weight="400" align="middle" anchor="middle" family="微软雅黑" size="13px" weight="400" font-style="" opacity="1" y="17.55" transform="rotate(0)"><tspan id="SvgjsTspan1263" dy="16" x="351"><tspan id="SvgjsTspan1264" style="text-decoration:;">生产批量协议</tspan></tspan></text></g></g><g id="SvgjsG1265" transform="translate(540.7999954223633,761)"><path id="SvgjsPath1266" d="M 8.415000000000001 0L 17.085 0L 17.085 55.25L 25.5 55.25L 12.75 68L 0 55.25L 8.415000000000001 55.25L 8.415000000000001 0Z" stroke="rgba(50,50,50,1)" stroke-width="2" fill-opacity="1" fill="#ffffff"></path><g id="SvgjsG1267"><text id="SvgjsText1268" font-family="微软雅黑" text-anchor="middle" font-size="13px" width="36px" fill="#323232" font-weight="400" align="middle" anchor="middle" family="微软雅黑" size="13px" weight="400" font-style="" opacity="1" y="20.650000000000002" transform="rotate(0)"></text></g></g><g id="SvgjsG1269"><path id="SvgjsPath1270" d="M385 1463L441.25 1463L441.25 1463L497.5 1463" stroke="#323232" stroke-width="2" fill="none" marker-end="url(#SvgjsMarker1271)"></path></g><g id="SvgjsG1273"><path id="SvgjsPath1274" d="M625.5 1463L697.1000022888184 1463L697.1000022888184 1463L768.7000045776367 1463" stroke="#323232" stroke-width="2" fill="none" marker-end="url(#SvgjsMarker1275)"></path></g><g id="SvgjsG1277"><path id="SvgjsPath1278" d="M382.5 931L410 931L410 931L437.5 931" stroke="#323232" stroke-width="2" fill="none" marker-end="url(#SvgjsMarker1279)"></path></g><g id="SvgjsG1281"><path id="SvgjsPath1282" d="M537.5 931L566.6000022888184 931L566.6000022888184 931L595.7000045776367 931" stroke="#323232" stroke-width="2" fill="none" marker-end="url(#SvgjsMarker1283)"></path></g><g id="SvgjsG1285"><path id="SvgjsPath1286" d="M695.7000045776367 931L721.6000022888184 931L721.6000022888184 931L747.5 931" stroke="#323232" stroke-width="2" fill="none" marker-end="url(#SvgjsMarker1287)"></path></g><g id="SvgjsG1289"><path id="SvgjsPath1290" d="M346.25 1205.5L377.625 1205.5L377.625 1205.5L409 1205.5" stroke="#323232" stroke-width="2" fill="none" marker-end="url(#SvgjsMarker1291)"></path></g><g id="SvgjsG1293"><path id="SvgjsPath1294" d="M726 1205.5L757.75 1205.5L757.75 1205.5L789.5 1205.5" stroke="#323232" stroke-width="2" fill="none" marker-end="url(#SvgjsMarker1295)"></path></g><g id="SvgjsG1297" transform="translate(527.0499954223633,1016)"><path id="SvgjsPath1298" d="M 8.415000000000001 0L 17.085 0L 17.085 55.25L 25.5 55.25L 12.75 68L 0 55.25L 8.415000000000001 55.25L 8.415000000000001 0Z" stroke="rgba(50,50,50,1)" stroke-width="2" fill-opacity="1" fill="#ffffff"></path><g id="SvgjsG1299"><text id="SvgjsText1300" font-family="微软雅黑" text-anchor="middle" font-size="13px" width="36px" fill="#323232" font-weight="400" align="middle" anchor="middle" family="微软雅黑" size="13px" weight="400" font-style="" opacity="1" y="20.650000000000002" transform="rotate(0)"></text></g></g><g id="SvgjsG1301" transform="translate(530.5,1311)"><path id="SvgjsPath1302" d="M 8.415000000000001 0L 17.085 0L 17.085 55.25L 25.5 55.25L 12.75 68L 0 55.25L 8.415000000000001 55.25L 8.415000000000001 0Z" stroke="rgba(50,50,50,1)" stroke-width="2" fill-opacity="1" fill="#ffffff"></path><g id="SvgjsG1303"><text id="SvgjsText1304" font-family="微软雅黑" text-anchor="middle" font-size="13px" width="36px" fill="#323232" font-weight="400" align="middle" anchor="middle" family="微软雅黑" size="13px" weight="400" font-style="" opacity="1" y="20.650000000000002" transform="rotate(0)"></text></g></g><g id="SvgjsG1305" transform="translate(25,502.625)"><path id="SvgjsPath1306" d="M 0 0L 160 0L 160 40L 0 40Z" stroke="none" fill="none"></path><g id="SvgjsG1307"><text id="SvgjsText1308" font-family="微软雅黑" text-anchor="middle" font-size="25px" width="160px" fill="#ff3333" font-weight="700" align="middle" anchor="middle" family="微软雅黑" size="25px" weight="700" font-style="" opacity="1" y="-1.25" transform="rotate(0)"><tspan id="SvgjsTspan1309" dy="31" x="80"><tspan id="SvgjsTspan1310" style="text-decoration:;">velocity搜索</tspan></tspan></text></g></g><g id="SvgjsG1311" transform="translate(216.20000457763672,25)"><path id="SvgjsPath1312" d="M 0 0L 647.1999816894531 0L 647.1999816894531 76L 0 76Z" stroke="rgba(50,50,50,1)" stroke-width="2" fill-opacity="1" fill="#ccccff"></path><g id="SvgjsG1313"><text id="SvgjsText1314" font-family="微软雅黑" text-anchor="middle" font-size="13px" width="628px" fill="#323232" font-weight="400" align="middle" anchor="middle" family="微软雅黑" size="13px" weight="400" font-style="" opacity="1" y="28.05" transform="rotate(0)"><tspan id="SvgjsTspan1315" dy="16" x="324"><tspan id="SvgjsTspan1316" style="text-decoration:;">黑白样本，提取协议</tspan></tspan></text></g></g><g id="SvgjsG1317"><path id="SvgjsPath1318" d="M539.7999954223633 101L539.7999954223633 148.9923893961835L539.3486229709906 148.9923893961835L539.3486229709906 196.98477879236697" stroke="#323232" stroke-width="2" fill="none" marker-end="url(#SvgjsMarker1319)"></path></g><g id="SvgjsG1321" transform="matrix(6.123233995736766e-17,1,-1,6.123233995736766e-17,1084.999973297119,346.9999732971189)"><path id="SvgjsPath1322" d="M 596.0000000000002 44.61999816894522Q 596.0000000000002 0 551.380001831055 0L 64.61999816894522 0Q 20 0 20 44.61999816894522L 20 89.23999633789043L 0 89.23999633789043L 33.94374942779538 111.54999542236305L 67.88749885559076 89.23999633789043L 47.88749885559076 89.23999633789043L 47.88749885559076 44.61999816894522Q 47.88749885559076 27.887498855590763 77.88749885559076 27.887498855590763L 538.1125011444094 27.887498855590763Q 568.1125011444094 27.887498855590763 568.1125011444094 44.61999816894522L 568.1125011444094 111.54999542236305L 596.0000000000002 111.54999542236305L 596.0000000000002 44.61999816894522Z" stroke="rgba(50,50,50,1)" stroke-width="2" fill-opacity="1" fill="#ffffff"></path><path id="SvgjsPath1323" d="M 0 0L 596.0000000000002 0L 596.0000000000002 111.54999542236305L 0 111.54999542236305Z" stroke="none" fill="none"></path><g id="SvgjsG1324"><text id="SvgjsText1325" font-family="微软雅黑" text-anchor="middle" font-size="13px" width="587px" fill="#323232" font-weight="400" align="middle" anchor="middle" family="微软雅黑" size="13px" weight="400" font-style="" opacity="1" y="45.824997711181524" transform="rotate(0)"><tspan id="SvgjsTspan1326" dy="16" x="303.5"><tspan id="SvgjsTspan1327" style="text-decoration:;">根据协议计算的值，更新模型权重，更新mcts树上节点权重</tspan></tspan></text></g></g></svg>