<svg id="SvgjsSvg1006" width="948" height="1114" xmlns="http://www.w3.org/2000/svg" version="1.1" xmlns:xlink="http://www.w3.org/1999/xlink" xmlns:svgjs="http://svgjs.com/svgjs"><defs id="SvgjsDefs1007"><marker id="SvgjsMarker1126" markerWidth="16" markerHeight="12" refX="16" refY="6" viewBox="0 0 16 12" orient="auto" markerUnits="userSpaceOnUse" stroke-dasharray="0,0"><path id="SvgjsPath1127" d="M0,2 L14,6 L0,11 L0,2" fill="#323232" stroke="#323232" stroke-width="2"></path></marker></defs><g id="SvgjsG1008" transform="translate(269,25)"><path id="SvgjsPath1009" d="M 54.6 100.1C -45.5 71.5 18.2 50.05 40.949999999999996 42.9C 31.85 7.15 145.6 0 191.1 14.3C 227.5 -7.15 341.25 0 341.25 21.45C 432.25 14.3 468.65000000000003 42.9 432.25 78.65C 464.1 107.25 432.25 143 327.59999999999997 128.70000000000002C 304.85 147.29 213.85 147.29 191.1 128.70000000000002C 145.6 143 54.6 135.85 54.6 100.1Z" stroke="rgba(50,50,50,1)" stroke-width="2" fill-opacity="1" fill="#ffffff"></path><g id="SvgjsG1010"><text id="SvgjsText1011" font-family="微软雅黑" text-anchor="middle" font-size="13px" width="435px" fill="#323232" font-weight="400" align="middle" anchor="middle" family="微软雅黑" size="13px" weight="400" font-style="" opacity="1" y="53.55" transform="rotate(0)"><tspan id="SvgjsTspan1012" dy="16" x="227.5"><tspan id="SvgjsTspan1013" style="text-decoration:;">主体:userid,seller_id,ipv3,uniq_cardIndex&lt;/br&gt;客体：</tspan></tspan><tspan id="SvgjsTspan1014" dy="16" x="227.5"><tspan id="SvgjsTspan1015" style="text-decoration:;">userid,seller_id,fuzzy_device_id&lt;/br&gt;前置规则：amount&gt;100</tspan></tspan></text></g></g><g id="SvgjsG1016" transform="translate(203,300)"><path id="SvgjsPath1017" d="M 0 26C 0 -8.666666666666666 126 -8.666666666666666 126 26C 126 60.666666666666664 0 60.666666666666664 0 26Z" stroke="rgba(50,50,50,1)" stroke-width="2" fill-opacity="1" fill="#ffffff"></path><g id="SvgjsG1018"><text id="SvgjsText1019" font-family="微软雅黑" text-anchor="middle" font-size="13px" width="106px" fill="#323232" font-weight="400" align="middle" anchor="middle" family="微软雅黑" size="13px" weight="400" font-style="" opacity="1" y="0.050000000000000044" transform="rotate(0)"><tspan id="SvgjsTspan1020" dy="16" x="63"><tspan id="SvgjsTspan1021" style="text-decoration:;">主体：</tspan></tspan><tspan id="SvgjsTspan1022" dy="16" x="63"><tspan id="SvgjsTspan1023" style="text-decoration:;">userid&lt;/br&gt;客</tspan></tspan><tspan id="SvgjsTspan1024" dy="16" x="63"><tspan id="SvgjsTspan1025" style="text-decoration:;">体：seller_id</tspan></tspan></text></g></g><g id="SvgjsG1026" transform="translate(514,300)"><path id="SvgjsPath1027" d="M 0 0L 160 0L 160 40L 0 40Z" stroke="none" fill="none"></path><g id="SvgjsG1028"><text id="SvgjsText1029" font-family="微软雅黑" text-anchor="middle" font-size="25px" width="160px" fill="#323232" font-weight="700" align="middle" anchor="middle" family="微软雅黑" size="25px" weight="700" font-style="" opacity="1" y="-1.25" transform="rotate(0)"><tspan id="SvgjsTspan1030" dy="31" x="80"><tspan id="SvgjsTspan1031" style="text-decoration:;">.......................</tspan></tspan></text></g></g><g id="SvgjsG1032" transform="translate(700.5,296)"><path id="SvgjsPath1033" d="M 0 30C 0 -10 165.5 -10 165.5 30C 165.5 70 0 70 0 30Z" stroke="rgba(50,50,50,1)" stroke-width="2" fill-opacity="1" fill="#ffffff"></path><g id="SvgjsG1034"><text id="SvgjsText1035" font-family="微软雅黑" text-anchor="middle" font-size="13px" width="146px" fill="#323232" font-weight="400" align="middle" anchor="middle" family="微软雅黑" size="13px" weight="400" font-style="" opacity="1" y="4.05" transform="rotate(0)"><tspan id="SvgjsTspan1036" dy="16" x="83"><tspan id="SvgjsTspan1037" style="text-decoration:;">主体：</tspan></tspan><tspan id="SvgjsTspan1038" dy="16" x="83"><tspan id="SvgjsTspan1039" style="text-decoration:;">userid_uniq_cardIndex&lt;</tspan></tspan><tspan id="SvgjsTspan1040" dy="16" x="83"><tspan id="SvgjsTspan1041" style="text-decoration:;">/br&gt;客体：seller_id</tspan></tspan></text></g></g><g id="SvgjsG1042" transform="translate(354.5,300)"><path id="SvgjsPath1043" d="M 0 26C 0 -8.666666666666666 146.5 -8.666666666666666 146.5 26C 146.5 60.666666666666664 0 60.666666666666664 0 26Z" stroke="rgba(50,50,50,1)" stroke-width="2" fill-opacity="1" fill="#ffffff"></path><g id="SvgjsG1044"><text id="SvgjsText1045" font-family="微软雅黑" text-anchor="middle" font-size="13px" width="127px" fill="#323232" font-weight="400" align="middle" anchor="middle" family="微软雅黑" size="13px" weight="400" font-style="" opacity="1" y="0.050000000000000044" transform="rotate(0)"><tspan id="SvgjsTspan1046" dy="16" x="73.5"><tspan id="SvgjsTspan1047" style="text-decoration:;">主体：</tspan></tspan><tspan id="SvgjsTspan1048" dy="16" x="73.5"><tspan id="SvgjsTspan1049" style="text-decoration:;">seller_idipv3&lt;/br&gt;客</tspan></tspan><tspan id="SvgjsTspan1050" dy="16" x="73.5"><tspan id="SvgjsTspan1051" style="text-decoration:;">体：userid</tspan></tspan></text></g></g><g id="SvgjsG1052" transform="translate(165,505)"><path id="SvgjsPath1053" d="M 0 0L 758 0L 758 72L 0 72Z" stroke="rgba(50,50,50,1)" stroke-width="2" fill-opacity="1" fill="#ffffff"></path><g id="SvgjsG1054"><text id="SvgjsText1055" font-family="微软雅黑" text-anchor="middle" font-size="13px" width="738px" fill="#323232" font-weight="400" align="middle" anchor="middle" family="微软雅黑" size="13px" weight="400" font-style="" opacity="1" y="26.05" transform="rotate(0)"><tspan id="SvgjsTspan1056" dy="16" x="379"><tspan id="SvgjsTspan1057" style="text-decoration:;">velocity计算过程</tspan></tspan></text></g></g><g id="SvgjsG1058" transform="translate(491,180)"><path id="SvgjsPath1059" d="M 19.8 0L 40.2 0L 40.2 60L 60 60L 30 90L 0 60L 19.8 60L 19.8 0Z" stroke="rgba(50,50,50,1)" stroke-width="2" fill-opacity="1" fill="#ffffff"></path><g id="SvgjsG1060"><text id="SvgjsText1061" font-family="微软雅黑" text-anchor="middle" font-size="13px" width="84px" fill="#323232" font-weight="400" align="middle" anchor="middle" family="微软雅黑" size="13px" weight="400" font-style="" opacity="1" y="30.55" transform="rotate(0)"></text></g></g><g id="SvgjsG1062" transform="translate(491,381)"><path id="SvgjsPath1063" d="M 19.8 0L 40.2 0L 40.2 60L 60 60L 30 90L 0 60L 19.8 60L 19.8 0Z" stroke="rgba(50,50,50,1)" stroke-width="2" fill-opacity="1" fill="#ffffff"></path><g id="SvgjsG1064"><text id="SvgjsText1065" font-family="微软雅黑" text-anchor="middle" font-size="13px" width="84px" fill="#323232" font-weight="400" align="middle" anchor="middle" family="微软雅黑" size="13px" weight="400" font-style="" opacity="1" y="30.55" transform="rotate(0)"></text></g></g><g id="SvgjsG1066" transform="translate(197,633)"><path id="SvgjsPath1067" d="M 0 26C 0 -8.666666666666666 126 -8.666666666666666 126 26C 126 60.666666666666664 0 60.666666666666664 0 26Z" stroke="rgba(50,50,50,1)" stroke-width="2" fill-opacity="1" fill="#ffffff"></path><g id="SvgjsG1068"><text id="SvgjsText1069" font-family="微软雅黑" text-anchor="middle" font-size="13px" width="106px" fill="#323232" font-weight="400" align="middle" anchor="middle" family="微软雅黑" size="13px" weight="400" font-style="" opacity="1" y="8.05" transform="rotate(0)"><tspan id="SvgjsTspan1070" dy="16" x="63"><tspan id="SvgjsTspan1071" style="text-decoration:;">协议</tspan></tspan><tspan id="SvgjsTspan1072" dy="16" x="63"><tspan id="SvgjsTspan1073" style="text-decoration:;">1&lt;/br&gt;iv:0.1212</tspan></tspan></text></g></g><g id="SvgjsG1074" transform="translate(717,629)"><path id="SvgjsPath1075" d="M 0 30C 0 -10 165.5 -10 165.5 30C 165.5 70 0 70 0 30Z" stroke="rgba(50,50,50,1)" stroke-width="2" fill-opacity="1" fill="#ffffff"></path><g id="SvgjsG1076"><text id="SvgjsText1077" font-family="微软雅黑" text-anchor="middle" font-size="13px" width="146px" fill="#323232" font-weight="400" align="middle" anchor="middle" family="微软雅黑" size="13px" weight="400" font-style="" opacity="1" y="20.05" transform="rotate(0)"><tspan id="SvgjsTspan1078" dy="16" x="83"><tspan id="SvgjsTspan1079" style="text-decoration:;">协议3&lt;/br&gt;iv:2.1212</tspan></tspan></text></g></g><g id="SvgjsG1080" transform="translate(364.25,633)"><path id="SvgjsPath1081" d="M 0 26C 0 -8.666666666666666 146.5 -8.666666666666666 146.5 26C 146.5 60.666666666666664 0 60.666666666666664 0 26Z" stroke="rgba(50,50,50,1)" stroke-width="2" fill-opacity="1" fill="#ffffff"></path><g id="SvgjsG1082"><text id="SvgjsText1083" font-family="微软雅黑" text-anchor="middle" font-size="13px" width="127px" fill="#323232" font-weight="400" align="middle" anchor="middle" family="微软雅黑" size="13px" weight="400" font-style="" opacity="1" y="16.05" transform="rotate(0)"><tspan id="SvgjsTspan1084" dy="16" x="73.5"><tspan id="SvgjsTspan1085" style="text-decoration:;">协议2&lt;/br&gt;iv:1.1212</tspan></tspan></text></g></g><g id="SvgjsG1086" transform="translate(530.5,633)"><path id="SvgjsPath1087" d="M 0 0L 160 0L 160 40L 0 40Z" stroke="none" fill="none"></path><g id="SvgjsG1088"><text id="SvgjsText1089" font-family="微软雅黑" text-anchor="middle" font-size="25px" width="160px" fill="#323232" font-weight="700" align="middle" anchor="middle" family="微软雅黑" size="25px" weight="700" font-style="" opacity="1" y="-1.25" transform="rotate(0)"><tspan id="SvgjsTspan1090" dy="31" x="80"><tspan id="SvgjsTspan1091" style="text-decoration:;">.......................</tspan></tspan></text></g></g><g id="SvgjsG1092" transform="translate(491,711)"><path id="SvgjsPath1093" d="M 19.8 0L 40.2 0L 40.2 60L 60 60L 30 90L 0 60L 19.8 60L 19.8 0Z" stroke="rgba(50,50,50,1)" stroke-width="2" fill-opacity="1" fill="#ffffff"></path><g id="SvgjsG1094"><text id="SvgjsText1095" font-family="微软雅黑" text-anchor="middle" font-size="13px" width="84px" fill="#323232" font-weight="400" align="middle" anchor="middle" family="微软雅黑" size="13px" weight="400" font-style="" opacity="1" y="30.55" transform="rotate(0)"><tspan id="SvgjsTspan1096" dy="16" x="30"><tspan id="SvgjsTspan1097" style="text-decoration:;">筛选IV高的</tspan></tspan></text></g></g><g id="SvgjsG1098" transform="translate(367.625,831)"><path id="SvgjsPath1099" d="M 0 26C 0 -8.666666666666666 126 -8.666666666666666 126 26C 126 60.666666666666664 0 60.666666666666664 0 26Z" stroke="rgba(50,50,50,1)" stroke-width="2" fill-opacity="1" fill="#ffffff"></path><g id="SvgjsG1100"><text id="SvgjsText1101" font-family="微软雅黑" text-anchor="middle" font-size="13px" width="106px" fill="#323232" font-weight="400" align="middle" anchor="middle" family="微软雅黑" size="13px" weight="400" font-style="" opacity="1" y="8.05" transform="rotate(0)"><tspan id="SvgjsTspan1102" dy="16" x="63"><tspan id="SvgjsTspan1103" style="text-decoration:;">协议</tspan></tspan><tspan id="SvgjsTspan1104" dy="16" x="63"><tspan id="SvgjsTspan1105" style="text-decoration:;">1&lt;/br&gt;iv:0.1212</tspan></tspan></text></g></g><g id="SvgjsG1106" transform="translate(534.875,831)"><path id="SvgjsPath1107" d="M 0 26C 0 -8.666666666666666 146.5 -8.666666666666666 146.5 26C 146.5 60.666666666666664 0 60.666666666666664 0 26Z" stroke="rgba(50,50,50,1)" stroke-width="2" fill-opacity="1" fill="#ffffff"></path><g id="SvgjsG1108"><text id="SvgjsText1109" font-family="微软雅黑" text-anchor="middle" font-size="13px" width="127px" fill="#323232" font-weight="400" align="middle" anchor="middle" family="微软雅黑" size="13px" weight="400" font-style="" opacity="1" y="16.05" transform="rotate(0)"><tspan id="SvgjsTspan1110" dy="16" x="73.5"><tspan id="SvgjsTspan1111" style="text-decoration:;">协议2&lt;/br&gt;iv:1.1212</tspan></tspan></text></g></g><g id="SvgjsG1112" transform="translate(486.5,914)"><path id="SvgjsPath1113" d="M 19.8 0L 40.2 0L 40.2 60L 60 60L 30 90L 0 60L 19.8 60L 19.8 0Z" stroke="rgba(50,50,50,1)" stroke-width="2" fill-opacity="1" fill="#ffffff"></path><g id="SvgjsG1114"><text id="SvgjsText1115" font-family="微软雅黑" text-anchor="middle" font-size="13px" width="84px" fill="#323232" font-weight="400" align="middle" anchor="middle" family="微软雅黑" size="13px" weight="400" font-style="" opacity="1" y="30.55" transform="rotate(0)"><tspan id="SvgjsTspan1116" dy="16" x="30"><tspan id="SvgjsTspan1117" style="text-decoration:;">组合</tspan></tspan></text></g></g><g id="SvgjsG1118" transform="translate(453.5,1037)"><path id="SvgjsPath1119" d="M 0 26C 0 -8.666666666666666 126 -8.666666666666666 126 26C 126 60.666666666666664 0 60.666666666666664 0 26Z" stroke="rgba(50,50,50,1)" stroke-width="2" fill-opacity="1" fill="#ffffff"></path><g id="SvgjsG1120"><text id="SvgjsText1121" font-family="微软雅黑" text-anchor="middle" font-size="13px" width="106px" fill="#323232" font-weight="400" align="middle" anchor="middle" family="微软雅黑" size="13px" weight="400" font-style="" opacity="1" y="16.05" transform="rotate(0)"><tspan id="SvgjsTspan1122" dy="16" x="63"><tspan id="SvgjsTspan1123" style="text-decoration:;">协议x</tspan></tspan></text></g></g><g id="SvgjsG1124"><path id="SvgjsPath1125" d="M453.5 1063L25 1063L25 541L165 541" stroke="#323232" stroke-width="2" fill="none" marker-end="url(#SvgjsMarker1126)"></path></g></svg>